<?xml version="1.0" encoding="UTF-8"?>
<svg width="30px" height="30px" viewBox="0 0 20 20" version="1.1" xmlns="http://www.w3.org/2000/svg" xmlns:xlink="http://www.w3.org/1999/xlink">
    <title>Exports/cursors/link</title>
    <defs>
        <path d="M7,2 C7.55228475,2 8,2.44771525 8,3 L8,8.5 C8,8.77614237 8.22385763,9 8.5,9 C8.77614237,9 9,8.77614237 9,8.5 L9,8 L9.00672773,7.88337887 C9.06449284,7.38604019 9.48716416,7 10,7 C10.5128358,7 10.9355072,7.38604019 10.9932723,7.88337887 L11,8 L11,8.5 C11,8.74545989 11.1768752,8.94960837 11.4101244,8.99194433 L11.5,9 C11.7761424,9 12,8.77614237 12,8.5 L12,8 L12.0067277,7.88337887 C12.0644928,7.38604019 12.4871642,7 13,7 C13.5128358,7 13.9355072,7.38604019 13.9932723,7.88337887 L14,8 L14,9 C14,9.24545989 14.1768752,9.44960837 14.4101244,9.49194433 L14.5,9.5 C14.7761424,9.5 15,9.27614237 15,9 C15,8.44771525 15.4477153,8 16,8 C16.5128358,8 16.9355072,8.38604019 16.9932723,8.88337887 L17,9 L17,12.1541722 C17,13.4914503 16.8607616,13.9763797 16.5993009,14.4652686 C16.3378403,14.9541574 15.9541574,15.3378403 15.4652686,15.5993009 C14.9763797,15.8607616 14.4914503,16 13.1541722,16 L8.5638852,16 C7.67236646,16 7.34908022,15.9071744 7.0231543,15.7328673 C6.69722837,15.5585602 6.4414398,15.3027716 6.2671327,14.9768457 C6.09282561,14.6509198 6,14.3276335 6,13.4361148 L6,3 C6,2.44771525 6.44771525,2 7,2 Z M5,10 L5,14 C4.44771525,14 4,13.5522847 4,13 L4,11 C4,10.4871642 4.38604019,10.0644928 4.88337887,10.0067277 L5,10 Z" id="path-1"></path>
        <filter x="-34.6%" y="-25.0%" width="169.2%" height="164.3%" filterUnits="objectBoundingBox" id="filter-2">
            <feMorphology radius="1" operator="dilate" in="SourceAlpha" result="shadowSpreadOuter1"></feMorphology>
            <feOffset dx="0" dy="1" in="shadowSpreadOuter1" result="shadowOffsetOuter1"></feOffset>
            <feGaussianBlur stdDeviation="1" in="shadowOffsetOuter1" result="shadowBlurOuter1"></feGaussianBlur>
            <feComposite in="shadowBlurOuter1" in2="SourceAlpha" operator="out" result="shadowBlurOuter1"></feComposite>
            <feColorMatrix values="0 0 0 0 0   0 0 0 0 0   0 0 0 0 0  0 0 0 0.4 0" type="matrix" in="shadowBlurOuter1"></feColorMatrix>
        </filter>
    </defs>
    <g id="Exports/cursors/link" stroke="none" stroke-width="1" fill="none" fill-rule="evenodd">
        <g id="Base" stroke-linejoin="round">
            <use fill="black" fill-opacity="1" filter="url(#filter-2)" xlink:href="#path-1"></use>
            <path stroke="#000000" stroke-width="1" d="M7,1.5 C7.41421356,1.5 7.78921356,1.66789322 8.06066017,1.93933983 C8.33210678,2.21078644 8.5,2.58578644 8.5,3 L8.5,7.69098301 C8.63264866,7.36306695 8.78036833,7.11404298 8.96917793,6.92523339 C9.24150398,6.65290734 9.60275296,6.5 10,6.5 C10.3825358,6.5 10.7315967,6.64323602 10.9965812,6.87890327 C11.2027418,7.06225468 11.3578192,7.3016545 11.4382751,7.57310813 L11.47,7.705 L11.5540136,7.66397622 C11.6169216,7.4232488 11.7240438,7.21572798 11.8610469,7.04567824 L11.9691779,6.92523339 C12.241504,6.65290734 12.602753,6.5 13,6.5 C13.3825358,6.5 13.7315967,6.64323602 13.9965812,6.87890327 C14.2717794,7.12365412 14.4559533,7.46827685 14.4931146,7.8556981 C14.7661567,8.15681616 14.8414849,8.03719479 14.9393398,7.93933983 C15.2107864,7.66789322 15.5857864,7.5 16,7.5 C16.3825358,7.5 16.7315967,7.64323602 16.9965812,7.87890327 C17.2720372,8.12388345 17.4562983,8.46892276 17.4932186,8.85678725 L17.5,12.1541722 C17.5,13.6330489 17.3283448,14.1622981 17.0402075,14.701068 C16.7314577,15.2783799 16.2783799,15.7314577 15.701068,16.0402075 C15.1622981,16.3283448 14.6330489,16.5 13.1541722,16.5 L8.5638852,16.5 C7.53076785,16.5 7.16316176,16.3747576 6.78735487,16.1737739 C6.37300588,15.9521776 6.04782237,15.6269941 5.8262261,15.2126451 C5.62524238,14.8368382 5.5,14.4692322 5.5,13.4361148 L5.5,3 C5.5,2.58578644 5.66789322,2.21078644 5.93933983,1.93933983 C6.21078644,1.66789322 6.58578644,1.5 7,1.5 Z M3.87890327,10.0034188 C4.22798959,9.61090571 4.7802463,9.40356423 5.37007386,9.54384572 L5.512336,14.4151024 C4.90272169,14.6178574 4.31948459,14.4408049 3.93933983,14.0606602 C3.66789322,13.7892136 3.5,13.4142136 3.5,13 L3.5,11 C3.5,10.6174642 3.64323602,10.2684033 3.87890327,10.0034188 Z" fill="#FFFFFF" fill-rule="evenodd"></path>
        </g>
        <path d="M11.5,10 C11.7761424,10 12,10.2238576 12,10.5 L12,13.5 C12,13.7761424 11.7761424,14 11.5,14 C11.2238576,14 11,13.7761424 11,13.5 L11,10.5 C11,10.2238576 11.2238576,10 11.5,10 Z M8.5,10 C8.77614237,10 9,10.2238576 9,10.5 L9,13.5 C9,13.7761424 8.77614237,14 8.5,14 C8.22385763,14 8,13.7761424 8,13.5 L8,10.5 C8,10.2238576 8.22385763,10 8.5,10 Z M14.5,11 C14.7761424,11 15,11.2238576 15,11.5 L15,13.5 C15,13.7761424 14.7761424,14 14.5,14 C14.2238576,14 14,13.7761424 14,13.5 L14,11.5 C14,11.2238576 14.2238576,11 14.5,11 Z" id="Lines" fill="#000000"></path>
    </g>
</svg>